<svg width="21" height="21" viewBox="0 0 21 21" fill="none" xmlns="http://www.w3.org/2000/svg">
<g clip-path="url(#clip0_3_8)">
<path d="M12.3335 10.4518C12.3335 9.01449 10.7771 8.11128 9.53872 8.82996C8.30037 9.54859 8.30037 11.355 9.53872 12.0737C10.7771 12.7924 12.3335 11.8891 12.3335 10.4518ZM16.5996 6.99955C17.8325 1.10602 15.12 -0.743458 10.5087 3.52258C6.16871 -0.546173 3.0781 0.736098 4.39322 6.97486C-1.67135 8.80317 -1.26956 12.2448 4.44257 14.0028C3.13564 19.7484 5.57689 21.8444 10.5087 17.5044C15.2926 21.795 17.8315 19.7861 16.5256 13.9781C22.7561 11.8656 22.1972 8.80789 16.5996 6.99955ZM15.7612 6.77762C14.7837 6.55712 13.8379 6.39662 12.876 6.30906C12.3692 5.56803 11.7789 4.82778 11.1006 4.13908C14.7976 0.592872 16.9766 1.70091 15.7612 6.77762ZM6.21805 11.5861C6.58379 12.367 7.06465 13.0821 7.42633 13.6821C6.83739 13.6219 6.20296 13.5304 5.52755 13.4109C5.74661 12.7985 5.9768 12.1901 6.21801 11.5861H6.21805ZM6.16871 9.46541C5.89965 8.81958 5.65417 8.19627 5.4536 7.61598C6.15078 7.47144 6.83402 7.34023 7.42633 7.2954C6.98549 7.98791 6.56677 8.71196 6.16871 9.46541ZM6.68653 10.5504C7.28954 9.34278 7.92742 8.19647 8.63461 7.17211C9.88944 7.09992 11.1309 7.10632 12.3582 7.19676C13.0465 8.15582 13.6888 9.30209 14.3062 10.5504C13.8442 11.5052 13.1882 12.6054 12.4322 13.7808C11.1698 13.8764 9.87541 13.8631 8.56066 13.7808C7.89428 12.7599 7.26846 11.6846 6.68653 10.5504ZM14.7748 11.5861C15.0142 12.1672 15.2355 12.7594 15.4406 13.3616C14.8213 13.492 14.1958 13.5907 13.5665 13.6575C13.9887 13.0033 14.3892 12.3087 14.7748 11.5861ZM13.5665 7.29544C14.2388 7.38744 14.8883 7.50236 15.5145 7.64063C15.3064 8.2603 15.0677 8.8693 14.7994 9.46541C14.4177 8.71261 14.0079 7.98807 13.5665 7.2954L13.5665 7.29544ZM11.6677 6.21041C10.8997 6.18027 10.1184 6.18125 9.32507 6.21041C9.67239 5.75362 10.0595 5.27649 10.4841 4.7802C10.8978 5.22678 11.2898 5.70748 11.6677 6.21041ZM9.89223 4.13904C9.21387 4.82773 8.62362 5.54333 8.11679 6.28436C7.15485 6.37193 6.18442 6.53243 5.20702 6.75288C4.048 1.59911 6.1952 0.59279 9.89223 4.13904ZM4.6645 13.189C-0.472829 11.6437 -0.226243 9.23531 4.61516 7.8133C4.91133 8.71196 5.26985 9.62468 5.67554 10.5011C5.28138 11.4076 4.93237 12.3385 4.6645 13.189ZM5.30562 14.2247C6.17691 14.4384 7.10026 14.541 8.06749 14.6439C8.64942 15.4652 9.2521 16.2287 9.89227 16.8878C6.12761 20.4963 4.02896 19.1853 5.30562 14.2247V14.2247ZM10.4841 16.2714C10.038 15.8094 9.62144 15.286 9.22646 14.7179C10.1069 14.7364 10.9573 14.7385 11.7664 14.7179C11.3791 15.2676 10.9505 15.787 10.4841 16.2714ZM11.1006 16.8878C11.7874 16.1416 12.393 15.385 12.9253 14.6192C13.834 14.5524 14.7546 14.4128 15.6872 14.2001C16.9754 19.4801 14.6363 20.2598 11.1006 16.8879V16.8878ZM16.3036 13.1397C16.0395 12.2892 15.7059 11.4076 15.3173 10.5011C15.7129 9.63383 16.0586 8.74466 16.3529 7.83795C21.0793 9.26817 21.4574 11.5533 16.3036 13.1397Z" fill="white"/>
</g>
<defs>
<clipPath id="clip0_3_8">
<rect width="21" height="21" fill="white"/>
</clipPath>
</defs>
</svg>
