<svg width="19" height="19" viewBox="0 0 19 19" fill="none" xmlns="http://www.w3.org/2000/svg">
<g clip-path="url(#clip0_3_6)">
<path d="M0 9.5C0 6.98044 1.00089 4.56408 2.78249 2.78249C4.56408 1.00089 6.98044 0 9.5 0C12.0196 0 14.4359 1.00089 16.2175 2.78249C17.9991 4.56408 19 6.98044 19 9.5C19 12.0196 17.9991 14.4359 16.2175 16.2175C14.4359 17.9991 12.0196 19 9.5 19C6.98044 19 4.56408 17.9991 2.78249 16.2175C1.00089 14.4359 0 12.0196 0 9.5ZM8.90625 1.27894C8.11063 1.52119 7.32094 2.25269 6.66544 3.48175C6.44947 3.89036 6.26372 4.31425 6.10969 4.75H8.90625V1.27894ZM4.85688 4.75C5.0548 4.11922 5.30916 3.50756 5.61688 2.92244C5.8222 2.53419 6.05933 2.16361 6.32581 1.8145C4.8545 2.42467 3.58863 3.4433 2.67781 4.75H4.85688ZM4.16575 8.90625C4.20138 7.86481 4.32963 6.86613 4.53625 5.9375H1.98787C1.54508 6.86975 1.28085 7.8767 1.20888 8.90625H4.16575ZM5.75581 5.9375C5.52225 6.91102 5.38777 7.90566 5.35444 8.90625H8.90625V5.9375H5.75581ZM10.0938 5.9375V8.90625H13.6444C13.6115 7.9057 13.4774 6.91105 13.2442 5.9375H10.0938ZM5.35563 10.0938C5.38857 11.0943 5.52265 12.0889 5.75581 13.0625H8.90625V10.0938H5.35563ZM10.0938 10.0938V13.0625H13.2442C13.4662 12.1541 13.6076 11.153 13.6456 10.0938H10.0938ZM6.10969 14.25C6.27356 14.7084 6.46 15.1335 6.66544 15.5182C7.32094 16.7473 8.11181 17.4776 8.90625 17.7211V14.25H6.10969ZM6.32581 17.1855C6.05931 16.8364 5.82218 16.4658 5.61688 16.0776C5.30917 15.4924 5.0548 14.8808 4.85688 14.25H2.67781C3.58858 15.5567 4.85447 16.5754 6.32581 17.1855ZM4.53625 13.0625C4.32151 12.0865 4.19748 11.0926 4.16575 10.0938H1.20888C1.2825 11.1506 1.55444 12.1517 1.98787 13.0625H4.53625ZM12.6742 17.1855C14.1455 16.5754 15.4114 15.5567 16.3222 14.25H14.1431C13.9452 14.8808 13.6908 15.4924 13.3831 16.0776C13.1779 16.4658 12.9407 16.8364 12.6742 17.1855ZM10.0938 14.25V17.7211C10.8894 17.4788 11.6791 16.7473 12.3346 15.5182C12.54 15.1335 12.7264 14.7084 12.8903 14.25H10.0938ZM14.4638 13.0625H17.0121C17.4456 12.1517 17.7175 11.1506 17.7911 10.0938H14.8342C14.8025 11.0926 14.6785 12.0865 14.4638 13.0625ZM17.7911 8.90625C17.7191 7.8767 17.4549 6.86976 17.0121 5.9375H14.4638C14.6704 6.86613 14.7986 7.86481 14.8342 8.90625H17.7911ZM13.3831 2.92244C13.6764 3.47344 13.9317 4.08619 14.1431 4.75H16.3222C15.4114 3.44325 14.1455 2.42461 12.6742 1.8145C12.9331 2.15175 13.1706 2.52463 13.3831 2.92244ZM12.8903 4.75C12.7363 4.31424 12.5505 3.89036 12.3346 3.48175C11.6791 2.25269 10.8894 1.52237 10.0938 1.27894V4.75H12.8903Z" fill="white"/>
</g>
<defs>
<clipPath id="clip0_3_6">
<rect width="19" height="19" fill="white"/>
</clipPath>
</defs>
</svg>
