<?xml version="1.0" encoding="utf-8"?>
<!-- Generator: Adobe Illustrator 27.2.0, SVG Export Plug-In . SVG Version: 6.00 Build 0)  -->
<svg version="1.1" xmlns="http://www.w3.org/2000/svg" xmlns:xlink="http://www.w3.org/1999/xlink" x="0px" y="0px"
	 viewBox="0 0 212 78" style="enable-background:new 0 0 212 78;" xml:space="preserve">
<style type="text/css">
	.st0{clip-path:url(#SVGID_00000105421471644302598470000005356378644641493673_);}
	.st1{fill:#FFFFFF;}
</style>
<g id="Layer_2">
	<rect x="1.7" y="1" width="206.7" height="75.8"/>
</g>
<g id="Layer_1">
	<g>
		<defs>
			<rect id="SVGID_1_" width="212" height="78"/>
		</defs>
		<clipPath id="SVGID_00000163764410582963469300000015556275707265189051_">
			<use xlink:href="#SVGID_1_"  style="overflow:visible;"/>
		</clipPath>
		<g style="clip-path:url(#SVGID_00000163764410582963469300000015556275707265189051_);">
			<path class="st1" d="M93.2,40.4H106l-6.4-11.1L93.2,40.4z"/>
			<path class="st1" d="M0,0v78h212V0H0z M60.5,27.9h-5.7v19.3c0,3.1,0.5,3.8,2.9,3.8h4.2v6.8h-31V51H35c2.3,0,2.9-0.7,2.9-3.8V27.9
				h-5.7c-4.3,0-5.9,2.9-6.3,9.8h-7.6V21.2h56.2v16.6h-7.6C66.4,30.8,64.8,27.9,60.5,27.9z M136.1,57.8h-31.5V51h4.4
				c1.8,0,2.4-1.2,1.2-3.2l-0.3-0.6H89.2l-0.4,0.6c-1.1,1.9-0.5,3.2,1.3,3.2h4.5v6.8H72.2V51h0.8c3,0,4.5-0.6,6.2-3.5l9.9-16.4
				c1-1.6,0.5-3.2-1.1-3.2h-2.6v-6.8h28L129,47.6c1.6,2.7,3.3,3.5,6.2,3.5h0.8V57.8z M194.3,44.9h-2.4c-2.3,0-2.5,0.7-2.5,3.8v9.2
				h-7.2l-1.3-4.8c-3.2,3.5-7.2,6.3-18,6.3c-14.7,0-28-5.1-28-19.8c0-14.7,13.3-19.8,28.4-19.8c8.9,0,13.7,1.8,16.9,4.7l1.6-3.3h6.7
				v12.6h-8.9c-2.7-5.4-8-7.2-13.4-7.2c-8.2,0-13.2,4.1-13.2,13c0,9,4.7,13,12.7,13c6.4,0,12.4-2.7,12.4-6.3c0-1-0.5-1.4-1.5-1.4
				h-6.1v-6.8h23.7V44.9z"/>
		</g>
	</g>
</g>
</svg>
